<?xml version="1.0" encoding="UTF-8"?>
<svg width="48px" height="48px" viewBox="0 0 48 48" version="1.1" xmlns="http://www.w3.org/2000/svg" xmlns:xlink="http://www.w3.org/1999/xlink">
    <title>alipayhk logo</title>
    <g id="alipayhk-logo" stroke="none" stroke-width="1" fill="none" fill-rule="evenodd">
        <g id="Group" transform="translate(0.000000, 0.094005)">
            <path d="M36.5625,8.18186099e-16 C43.5,8.18186099e-16 48,4.5 48,11.4375 L48,36.5625 C48,43.5 43.5,48 36.5625,48 L11.4375,48 C4.5,48 0,43.5 0,36.5625 L0,11.4375 C0,4.5 4.5,8.18186102e-16 11.4375,8.18186102e-16 L36.5625,8.18186099e-16 Z" id="App-Icon-Shape-Copy-4" fill="#FFFFFF"></path>
            <path d="M36.5625,0 C43.5,0 48,4.5 48,11.4375 L48.0010611,32.040339 C47.5506924,31.9255473 44.6615474,31.2813624 38.909287,29.3510123 C37.1120653,28.7719702 34.7648208,27.8928458 32.1941461,26.9404489 C33.721601,24.272922 34.9734648,21.1701301 35.8099912,17.8147447 L27.1147447,17.8147447 L27.1147447,14.7154489 L37.7040053,14.7154489 L37.7040053,12.993618 L27.1147447,12.993618 L27.1147447,7.828125 L22.8101673,7.828125 C22.0858286,7.828125 22.0405575,8.46443974 22.0359185,8.51493202 L22.0353433,12.993618 L11.3599912,12.993618 L11.3599912,14.7154489 L22.1214349,14.7154489 L22.1214349,17.8147447 L13.2540053,17.8147447 L13.2540053,19.5365757 L30.3862236,19.5365757 C29.7573658,21.6355489 28.92279,23.6523636 27.8895687,25.4768926 C22.3505053,23.7040768 16.4041525,22.204394 12.6513644,23.1524208 C10.2491558,23.7040768 8.73648707,24.7383407 7.83023768,25.8212588 C3.6247101,30.8404981 6.5978865,38.390625 15.406294,38.390625 C20.5770317,38.390625 25.5844867,35.5463991 29.4392165,30.8145687 C34.7869896,33.3677529 46.1252401,38.0240803 47.8436248,38.7412727 C46.990424,44.4272125 42.744092,48 36.5625,48 L11.4375,48 C4.5,48 5.32907052e-14,43.5 5.32907052e-14,36.5625 L5.32907052e-14,22.8575849 L22.7930708,0 L36.5625,0 Z" id="Combined-Shape" fill="#00A0E9"></path>
            <path d="M14.5453785,35.560129 C7.73890145,35.560129 5.70222743,30.2334903 9.12161092,27.3591498 C10.2455772,26.3548699 12.2822512,25.8894354 13.3400968,25.8052801 C17.4522699,25.372286 21.2122835,26.9237342 25.6511884,29.0856718 C22.5700661,33.026097 18.5489405,35.560129 14.5453785,35.560129" id="Fill-3" fill="#00A0E9"></path>
            <path d="M23.017,-7.10542736e-15 L-7.10542736e-15,23.017 L-1.77635684e-14,11.4686603 C-1.77635684e-14,4.51225979 4.5,-9.83772587e-15 11.4375,-9.83772587e-15 L23.017,-7.10542736e-15 Z" id="Combined-Shape" fill="#F8F8F8"></path>
            <path d="M7.26384421,10.9126192 L6.52226706,10.9126192 L6.52226706,8.19318728 L3.2593276,8.19318728 L3.2593276,10.9126192 L2.51775046,10.9126192 L2.51775046,4.93980299 L3.2593276,4.93980299 L3.2593276,7.52264243 L6.52226706,7.52264243 L6.52226706,4.93980299 L7.26384421,4.93980299 L7.26384421,10.9126192 Z M8.78398581,10.9126192 C8.78398581,10.9126192 8.74690732,10.9126192 8.67274924,10.9126192 C8.59859115,10.9126192 8.51207468,10.9126192 8.41319723,10.9126192 C8.31431979,10.9126192 8.22780332,10.9126192 8.15364523,10.9126192 C8.07948715,10.9126192 8.04240866,10.9126192 8.04240866,10.9126192 L8.04240866,4.93980299 L8.78398581,4.93980299 L8.78398581,7.85377569 L8.82518454,7.85377569 L11.4495437,4.93980299 L12.3847549,4.93980299 L9.94167013,7.58472992 L12.6031081,10.9126192 L11.6555373,10.9126192 L9.426686,8.11454314 L8.78398581,8.82647965 L8.78398581,10.9126192 Z" id="HK" fill="#00A0E9" transform="translate(7.560429, 7.926211) rotate(-405.000000) translate(-7.560429, -7.926211) "></path>
        </g>
    </g>
</svg>